<svg width="24" height="24" viewBox="0 0 23 23" fill="none" xmlns="http://www.w3.org/2000/svg">
<path fill-rule="evenodd" clip-rule="evenodd" d="M14.9099 16.9099C15.4957 17.4957 16.4454 17.4957 17.0312 16.9099C17.617 16.3241 17.617 15.3744 17.0312 14.7886L13.5563 11.3137L17.0312 7.83885C17.617 7.25306 17.617 6.30331 17.0312 5.71753C16.4454 5.13174 15.4957 5.13174 14.9099 5.71753L11.435 9.1924L7.83883 5.59621C7.25305 5.01042 6.3033 5.01042 5.71751 5.59621C5.13173 6.18199 5.13173 7.13174 5.71751 7.71753L9.31371 11.3137L5.71751 14.9099C5.13173 15.4957 5.13173 16.4454 5.71751 17.0312C6.3033 17.617 7.25305 17.617 7.83883 17.0312L11.435 13.435L14.9099 16.9099Z" fill="#1B172D"/>
</svg>
