<svg width="147" height="147" viewBox="0 0 147 147" fill="none" xmlns="http://www.w3.org/2000/svg">
<circle cx="73.5" cy="73.5" r="61" stroke="#F5F5FA" stroke-width="25"/>
<path d="M147 73.5C147 83.1522 145.099 92.7098 141.405 101.627C137.711 110.545 132.297 118.647 125.472 125.472C118.647 132.297 110.545 137.711 101.627 141.405C92.7098 145.099 83.1521 147 73.5 147C63.8478 147 54.2902 145.099 45.3728 141.405C36.4553 137.711 28.3527 132.297 21.5276 125.472C14.7025 118.647 9.28856 110.545 5.59485 101.627C1.90113 92.7098 -3.14507e-06 83.1521 0 73.5L24.9619 73.5C24.9619 79.8741 26.2174 86.1858 28.6567 92.0747C31.0959 97.9636 34.6712 103.314 39.1784 107.822C43.6856 112.329 49.0364 115.904 54.9253 118.343C60.8142 120.783 67.1259 122.038 73.5 122.038C79.8741 122.038 86.1858 120.783 92.0747 118.343C97.9636 115.904 103.314 112.329 107.822 107.822C112.329 103.314 115.904 97.9636 118.343 92.0747C120.783 86.1858 122.038 79.8741 122.038 73.5H147Z" fill="#C4C4C4"/>
</svg>
